<?xml version="1.0" encoding="UTF-8" standalone="no"?>
<!-- Created with Inkscape (http://www.inkscape.org/) -->

<svg
   xmlns:dc="http://purl.org/dc/elements/1.1/"
   xmlns:cc="http://creativecommons.org/ns#"
   xmlns:rdf="http://www.w3.org/1999/02/22-rdf-syntax-ns#"
   xmlns:svg="http://www.w3.org/2000/svg"
   xmlns="http://www.w3.org/2000/svg"
   xmlns:sodipodi="http://sodipodi.sourceforge.net/DTD/sodipodi-0.dtd"
   xmlns:inkscape="http://www.inkscape.org/namespaces/inkscape"
   id="svg3360"
   version="1.1"
   inkscape:version="0.91 r13725"
   width="898.125"
   height="480"
   viewBox="0 0 898.125 480"
   sodipodi:docname="logo.svg">
  <metadata
     id="metadata3366">
    <rdf:RDF>
      <cc:Work
         rdf:about="">
        <dc:format>image/svg+xml</dc:format>
        <dc:type
           rdf:resource="http://purl.org/dc/dcmitype/StillImage" />
        <dc:title></dc:title>
      </cc:Work>
    </rdf:RDF>
  </metadata>
  <defs
     id="defs3364" />
  <sodipodi:namedview
     pagecolor="#ffffff"
     bordercolor="#666666"
     borderopacity="1"
     objecttolerance="10"
     gridtolerance="10"
     guidetolerance="10"
     inkscape:pageopacity="0"
     inkscape:pageshadow="2"
     inkscape:window-width="1366"
     inkscape:window-height="721"
     id="namedview3362"
     showgrid="false"
     inkscape:zoom="0.32734864"
     inkscape:cx="387.41619"
     inkscape:cy="-2.2483759"
     inkscape:window-x="-4"
     inkscape:window-y="-4"
     inkscape:window-maximized="1"
     inkscape:current-layer="svg3360" />
  <path
     style="fill:#c0d62d"
     d="m 239.53091,467.25776 c -1.54688,-0.2103 -6.82031,-0.8394 -11.71875,-1.3978 -4.89844,-0.5585 -14.85623,-2.2437 -22.12843,-3.7449 -52.9725,-10.9348 -100.8727,-36.8816 -136.777825,-74.0904 C 36.720043,354.67016 17.310265,316.97056 8.8642719,271.40579 6.4174946,258.20583 5.9288295,225.50362 7.9519733,210.35339 11.82594,181.34334 21.673597,153.11374 36.527796,128.43704 73.633101,66.795458 140.05358,23.019308 215.62466,10.398568 c 18.28031,-3.0529002 27.99886,-3.8040302 49.21875,-3.8040302 10.82812,0 23.69531,0.41556 28.59375,0.92347 47.3792,4.9126502 91.02707,20.5069102 127.96875,45.7199202 56.18376,38.34589 91.96305,94.232772 100.3602,156.761612 1.55114,11.55042 1.77183,40.22852 0.39699,51.58709 -3.65673,30.21103 -15.28254,63.09003 -31.24113,88.35333 -27.04414,42.8121 -69.87098,77.9501 -119.04383,97.6713 -21.56643,8.6494 -42.2604,14.2309 -66.72223,17.9962 -8.90601,1.3708 -58.50607,2.6181 -65.625,1.6503 z m 168.70843,-170.6535 c 6.03576,-1.5604 10.8825,-3.748 11.98034,-5.4074 0.96908,-1.4648 0.85797,-7.3361 -0.16955,-8.9603 -0.72764,-1.1501 -2.04591,-0.936 -8.65753,1.4063 -6.82774,2.4188 -9.08369,2.7629 -18.11169,2.7629 -8.84033,0 -10.86446,-0.2952 -14.17895,-2.0682 -7.33638,-3.9245 -11.1388,-10.3237 -12.18146,-20.50067 l -0.61727,-6.02485 27.67092,0 c 23.55685,0 27.84593,-0.21086 28.84798,-1.41826 1.71788,-2.06992 0.67408,-18.41158 -1.5491,-24.25259 -3.41073,-8.96109 -11.85059,-16.32599 -21.627,-18.87242 -22.22606,-5.78916 -41.86371,6.65871 -46.68846,29.59478 -3.72538,17.70987 0.18902,36.26211 9.648,45.72641 9.53884,9.5443 27.50893,12.7002 45.63377,8.0143 z m -41.30899,-52.90593 c 1.5994,-10.00201 8.3391,-17.78549 17.09769,-19.74557 11.21062,-2.50883 21.11338,2.95492 24.20121,13.35278 0.80185,2.70012 1.45791,6.09837 1.45791,7.55166 l 0,2.64234 -21.68232,0 -21.68232,0 0.60783,-3.80121 z m -211.33867,51.67533 c 1.24604,-2.3282 1.24604,-7.17 0,-9.4983 -0.91528,-1.7102 -2.16858,-1.8133 -22.03125,-1.8133 l -21.06077,0 0,-49.65454 c 0,-48.13247 -0.0556,-49.68426 -1.81337,-50.625 -2.2854,-1.22311 -7.63924,-1.25101 -10.781854,-0.0562 l -2.404781,0.91431 0,54.39821 c 0,53.14822 0.04313,54.44132 1.875,56.27322 1.787165,1.7871 3.124995,1.875 28.560775,1.875 25.42394,0 26.73165,-0.086 27.65625,-1.8134 z m 29.56423,-39.84577 0,-41.19041 -2.95808,-0.76651 c -1.62695,-0.42159 -4.58008,-0.4296 -6.5625,-0.0178 l -3.60442,0.74872 -0.24468,40.2707 c -0.13457,22.14889 -0.0349,40.81747 0.2215,41.48567 0.33353,0.8693 2.2706,1.1361 6.80718,0.9375 l 6.341,-0.2775 0,-41.19035 z m 41.53125,40.53417 c 0.8247,-0.8247 1.125,-8.588 1.125,-29.08346 l 0,-27.95846 3.98437,-4.34963 c 6.11717,-6.67794 11.39967,-9.67165 17.05855,-9.66746 6.25023,0.005 9.98883,2.3703 12.81348,8.10801 2.17874,4.42568 2.24963,5.31832 2.7061,34.07598 l 0.46875,29.53122 6.5625,0 6.5625,0 0.46875,-28.7896 0.46875,-28.78963 4.21875,-4.37381 c 6.67288,-6.91814 11.72039,-9.76677 17.29292,-9.7595 6.95045,0.009 11.43927,3.42515 13.88975,10.57039 0.6153,1.79412 1.25037,14.79816 1.56666,32.07968 l 0.53192,29.06247 6.5625,0 6.5625,0 -0.007,-31.87497 c -0.007,-31.01733 -0.0646,-32.01809 -2.14947,-37.19276 -2.35816,-5.85291 -7.60247,-11.28704 -13.18152,-13.65862 -1.97289,-0.83865 -6.37782,-1.48566 -10.44333,-1.53397 -5.99861,-0.0713 -7.77715,0.30681 -12.11,2.57432 -2.79331,1.46181 -7.26376,4.72435 -9.93433,7.25007 -2.67057,2.52572 -5.07006,4.59221 -5.33218,4.59221 -0.26213,0 -1.63406,-1.83114 -3.04872,-4.0692 -3.10761,-4.91637 -8.38738,-8.50897 -14.74721,-10.03467 -9.41776,-2.25928 -18.55911,0.68014 -27.71455,8.91167 l -4.83368,4.34588 -0.28029,-5.84892 c -0.27457,-5.72949 -0.34252,-5.86498 -3.32717,-6.6349 -1.67578,-0.43229 -4.41797,-0.43077 -6.09375,0.004 l -3.04687,0.78934 -0.24468,40.25308 c -0.13457,22.1392 -0.0424,40.78044 0.20495,41.42494 0.59323,1.5462 11.90727,1.5856 13.44598,0.047 z m -41.0625,-100.12502 c 2.33446,-2.33446 2.57571,-9.83241 0.41559,-12.9164 -1.22636,-1.75087 -2.33847,-2.0836 -6.96429,-2.0836 -5.95027,0 -8.00913,1.19306 -9.02182,5.22797 -0.89525,3.56698 0.44091,8.63743 2.69155,10.21384 3.04725,2.13437 10.56052,1.87664 12.87897,-0.44181 z M 685.565,321.51136 c -9.25865,-1.8274 -17.07526,-6.9394 -19.58705,-12.8098 -3.18773,-7.4502 -0.0113,-18.8813 6.80868,-24.5029 l 3.24279,-2.673 -2.43464,-1.5953 c -7.5622,-4.95491 -8.02216,-14.68345 -1.17058,-24.75939 2.60222,-3.82683 2.66587,-4.14264 1.16841,-5.79731 -4.4537,-4.92129 -5.5128,-17.093 -2.24685,-25.82204 2.43837,-6.51709 5.91367,-10.568 11.8279,-13.78693 5.00947,-2.7265 16.1929,-4.92103 19.92027,-3.90897 1.30596,0.3546 9.73151,0.90467 18.72344,1.2224 l 16.34895,0.57767 0.76696,2.96865 c 0.44373,1.71754 0.37887,3.98938 -0.15388,5.39063 -0.86029,2.26275 -1.32297,2.42197 -7.03779,2.42197 -3.36432,0 -6.11519,0.10547 -6.11302,0.23438 0.002,0.1289 1.05684,2.30978 2.34375,4.84638 3.00906,5.93114 3.16717,14.20012 0.4123,21.56317 -2.40301,6.4226 -8.81217,12.454 -15.96466,15.02369 -7.15828,2.57177 -18.54616,2.48044 -24.53229,-0.19674 l -4.45571,-1.99275 -1.4586,2.82064 c -2.058,3.97973 -1.40597,8.21867 1.60882,10.45927 2.11933,1.57507 4.79664,1.96572 18.03474,2.63141 8.55028,0.42997 17.34438,1.25583 19.54246,1.83527 11.01987,2.90494 16.8894,9.8343 16.88406,19.9326 -0.007,13.0825 -8.16032,21.7843 -23.88521,25.4918 -6.31545,1.489 -22.02016,1.7225 -28.59325,0.4252 z m 30.48706,-12.9197 c 4.84632,-2.5373 7.68935,-6.8607 7.69409,-11.7006 0.008,-8.3993 -4.65527,-10.7319 -23.13628,-11.5726 l -12.96004,-0.5895 -3.55442,3.9343 c -5.46527,6.0494 -6.65488,10.7728 -4.00412,15.8988 1.15821,2.2398 3.99827,3.9969 9.90837,6.1304 0.77344,0.2792 6.04687,0.3944 11.71875,0.256 8.55272,-0.2087 10.99869,-0.6109 14.33365,-2.3568 z m -8.6159,-59.12846 c 5.5717,-2.53037 8.20053,-6.71934 8.65038,-13.78417 0.44391,-6.97142 -0.86954,-11.42384 -4.31168,-14.61604 -7.66771,-7.11095 -21.30017,-5.3072 -26.20904,3.4678 -2.45903,4.39568 -2.86777,12.84522 -0.8518,17.60824 3.30394,7.80603 14.0406,11.26684 22.72214,7.32417 z m 164.87101,42.07136 c -6.06204,-0.8431 -10.07286,-2.9457 -12.91082,-6.7684 -4.3879,-5.9104 -4.68142,-8.06374 -5.11182,-37.501 l -0.40779,-27.89062 -5.29791,-0.0143 c -2.91386,-0.007 -5.89558,-0.39266 -6.62605,-0.85503 -1.40598,-0.88994 -1.87179,-8.23686 -0.64779,-10.21733 0.40689,-0.65837 3.10724,-1.1008 6.71875,-1.1008 l 6.03842,0 0,-9.65625 c 0,-6.26042 0.39563,-10.05188 1.125,-10.78125 0.61875,-0.61875 3.4875,-1.125 6.375,-1.125 2.8875,0 5.75625,0.50625 6.375,1.125 0.72892,0.72892 1.125,4.51422 1.125,10.75149 l 0,9.62651 11.01562,0.26412 11.01563,0.26413 0.28871,4.52596 c 0.43243,6.77885 -0.26519,7.19279 -12.12225,7.19279 l -10.19771,0 0,25.34261 c 0,27.51883 0.41449,30.23043 5.08914,33.29338 2.42782,1.59079 8.01104,1.55169 14.83273,-0.10389 2.57418,-0.62472 2.57813,-0.61784 2.57813,4.49458 0,7.1221 -1.51018,8.3021 -12.1875,9.5224 -1.28906,0.1474 -4.46944,-0.028 -7.06749,-0.3891 z m -312.62001,-2.785 c -1.83191,-1.8319 -1.875,-3.125 -1.875,-56.27322 l 0,-54.39821 2.40478,-0.91429 c 3.14262,-1.19483 8.49645,-1.16693 10.78185,0.0562 1.75779,0.94075 1.81337,2.49253 1.81337,50.625 l 0,49.65455 21.06077,0 c 19.86267,0 21.11597,0.10316 22.03125,1.81337 0.53376,0.9973 0.97048,3.1344 0.97048,4.7491 0,1.6147 -0.43672,3.7518 -0.97048,4.7492 -0.9246,1.7276 -2.23231,1.8133 -27.65625,1.8133 -25.43577,0 -26.77359,-0.088 -28.56077,-1.875 z m 72.63307,0.7462 c -0.25639,-0.6682 -0.35607,-19.33679 -0.2215,-41.48568 l 0.24468,-40.2707 3.60442,-0.74872 c 1.98242,-0.4118 4.93555,-0.40378 6.5625,0.0178 l 2.95808,0.76652 0,41.19041 0,41.19037 -6.341,0.2775 c -4.53658,0.1986 -6.47365,-0.068 -6.80718,-0.9375 z m 126.5642,0 c -0.25547,-0.6682 -0.35514,-28.00403 -0.2215,-60.74622 l 0.24298,-59.53125 6.5625,0 6.5625,0 0.25017,24.12706 0.25018,24.12705 5.80818,-4.27574 c 8.44428,-6.21632 11.28489,-7.24871 20.03204,-7.28038 12.52584,-0.0454 19.70133,4.54822 24.98264,15.9933 2.01112,4.35827 2.07538,5.47415 2.09453,36.37121 l 0.0198,31.87497 -6.5625,0 -6.5625,0 -0.46875,-29.06247 c -0.46251,-28.67547 -0.49996,-29.12491 -2.8125,-33.74864 -3.1349,-6.26795 -7.2154,-8.90761 -13.76976,-8.90761 -6.47149,0 -10.70618,2.16157 -17.22679,8.79326 l -5.09722,5.18407 -0.46875,28.87071 -0.46875,28.87068 -6.341,0.2775 c -4.5372,0.1986 -6.47313,-0.068 -6.80548,-0.9375 z M 633.05819,189.81635 c -2.25064,-1.57641 -3.5868,-6.64686 -2.69155,-10.21384 1.01269,-4.03491 3.07155,-5.22797 9.02182,-5.22797 4.62582,0 5.73793,0.33273 6.96429,2.0836 2.16012,3.08399 1.91887,10.58194 -0.41559,12.9164 -2.31845,2.31845 -9.83172,2.57618 -12.87897,0.44181 z"
     id="path3370"
     inkscape:connector-curvature="0" />
</svg>
