<?xml version="1.0" encoding="UTF-8" standalone="no"?>
<!-- Created with Inkscape (http://www.inkscape.org/) -->

<svg
   xmlns:dc="http://purl.org/dc/elements/1.1/"
   xmlns:cc="http://creativecommons.org/ns#"
   xmlns:rdf="http://www.w3.org/1999/02/22-rdf-syntax-ns#"
   xmlns:svg="http://www.w3.org/2000/svg"
   xmlns="http://www.w3.org/2000/svg"
   xmlns:sodipodi="http://sodipodi.sourceforge.net/DTD/sodipodi-0.dtd"
   xmlns:inkscape="http://www.inkscape.org/namespaces/inkscape"
   id="svg3336"
   version="1.1"
   inkscape:version="0.91 r13725"
   width="898.125"
   height="480"
   viewBox="0 0 898.125 480"
   sodipodi:docname="logo.svg">
  <metadata
     id="metadata3342">
    <rdf:RDF>
      <cc:Work
         rdf:about="">
        <dc:format>image/svg+xml</dc:format>
        <dc:type
           rdf:resource="http://purl.org/dc/dcmitype/StillImage" />
        <dc:title></dc:title>
      </cc:Work>
    </rdf:RDF>
  </metadata>
  <defs
     id="defs3340" />
  <sodipodi:namedview
     pagecolor="#ffffff"
     bordercolor="#666666"
     borderopacity="1"
     objecttolerance="10"
     gridtolerance="10"
     guidetolerance="10"
     inkscape:pageopacity="0"
     inkscape:pageshadow="2"
     inkscape:window-width="1366"
     inkscape:window-height="721"
     id="namedview3338"
     showgrid="false"
     inkscape:zoom="0.35547247"
     inkscape:cx="22.805465"
     inkscape:cy="-152.63096"
     inkscape:window-x="-4"
     inkscape:window-y="-4"
     inkscape:window-maximized="1"
     inkscape:current-layer="svg3336" />
  <path
     style="fill:#000000"
     d="M 238.39539,469.66336 C 174.32865,463.46156 117.54926,438.11156 74.664636,396.56346 31.536534,354.77944 8.0646816,303.88263 5.9215976,247.49975 3.6174656,186.87983 27.816112,128.8849 74.182766,83.903758 c 19.64486,-19.05784 38.963494,-32.62421 64.645824,-45.39707 107.01522,-53.22301 240.11148,-31.9966102 320.55811,51.12311 40.71627,42.069182 62.80117,94.948862 62.80117,150.369952 0,45.63568 -14.97673,89.70323 -43.65056,128.4375 -9.37529,12.66468 -34.44586,37.70566 -47.44717,47.39115 -37.64725,28.04586 -78.16834,44.65056 -126.87102,51.98906 -14.96381,2.2548 -51.12451,3.2688 -65.82373,1.8459 z m 25.51565,-183.80828 c 9.80092,-3.667 17.33955,-11.20459 21.00543,-21.00255 6.19495,-16.55746 4.24177,-38.22144 -4.48956,-49.79668 -3.57446,-4.7387 -11.2171,-9.99567 -16.97618,-11.67699 -5.53176,-1.61496 -16.11104,-2.08294 -22.04411,-0.97513 -20.25345,3.78168 -31.3534,19.34772 -31.39239,44.0232 -0.0357,22.60807 9.52821,36.79054 27.64239,40.99125 7.3801,1.71146 19.4179,0.99477 26.25443,-1.5631 z m -20.92545,-10.26765 c -12.75332,-2.59557 -18.75327,-13.88695 -17.78386,-33.46769 0.5618,-11.34788 2.95782,-17.49036 8.84331,-22.67097 8.75528,-7.7067 23.56791,-7.46144 31.55177,0.52242 11.04049,11.04049 10.60505,41.17482 -0.73315,50.73681 -5.39879,4.55305 -14.02679,6.47733 -21.87807,4.87943 z m 109.06454,12.14206 c 19.5016,-3.60507 31.38774,-20.02714 31.38774,-43.36579 0,-19.05823 -6.40009,-31.86099 -19.2311,-38.46998 -11.50155,-5.92421 -29.35233,-5.5415 -40.28182,0.8636 -5.50868,3.2283 -12.33087,10.73064 -14.66285,16.12466 -5.90804,13.66575 -5.97596,33.37553 -0.15913,46.18027 6.69027,14.72749 23.86852,22.19411 42.94716,18.66724 z m -14.49554,-12.14514 c -7.06365,-1.46011 -13.7966,-8.21944 -16.20954,-16.27308 -1.86006,-6.20829 -1.51614,-23.52623 0.58721,-29.56931 2.5284,-7.26425 8.90809,-13.45699 15.48984,-15.03593 9.90456,-2.37607 20.74535,1.01241 25.59821,8.00119 8.2934,11.94364 6.79659,38.61509 -2.66442,47.47717 -5.22662,4.89576 -14.55403,7.10473 -22.8013,5.39996 z M 77.812866,236.24975 c 0.25781,-27.58594 0.73293,-49.52344 1.05581,-48.75 0.32289,0.77344 8.69458,22.5 18.60375,48.28125 9.909174,25.78125 18.631864,47.84299 19.383754,49.02609 1.23568,1.94434 1.96678,2.12456 7.60624,1.875 l 6.23916,-0.27609 20.19627,-50.15625 20.19627,-50.15625 0.46875,50.15625 0.46875,50.15625 7.03125,0 7.03125,0 0.24192,-54.60183 c 0.2857,-64.48068 1.537,-58.36692 -11.94588,-58.36692 -7.87483,0 -8.60747,0.1677 -11.26312,2.57812 -2.2504,2.04259 -6.44641,11.33775 -20.19995,44.74766 -9.54774,23.19324 -17.66491,42.47491 -18.03815,42.84815 -0.37324,0.37324 -8.01252,-17.97023 -16.97615,-40.76327 -8.963654,-22.79306 -17.180504,-42.78982 -18.259684,-44.43727 -2.72927,-4.16642 -5.08894,-4.97553 -14.46248,-4.95904 -8.74979,0.0154 -9.6402,0.28644 -11.29992,3.43964 -1.20431,2.288 -1.60677,108.20458 -0.41568,109.39568 0.3642,0.36419 3.63373,0.53997 7.26563,0.39063 l 6.60346,-0.27155 0.46875,-50.15625 z m 341.250004,21.23267 0.46875,-28.92358 5.68024,-5.33772 c 6.80733,-6.39684 10.98078,-8.53387 16.66604,-8.53387 5.20279,0 8.23522,1.08699 10.95515,3.92694 4.87001,5.0849 5.10353,6.67897 5.60482,38.26056 l 0.46875,29.53125 5.94123,0.28123 c 3.57319,0.16914 6.4691,-0.15686 7.26562,-0.81791 1.07818,-0.89481 1.32308,-5.56593 1.31728,-25.12498 -0.0109,-36.78594 -1.60105,-45.17449 -9.95785,-52.53043 -4.85983,-4.2778 -10.80078,-6.19274 -19.09753,-6.15571 -7.58066,0.0338 -14.33371,2.96898 -21.28221,9.2501 l -4.87595,4.40763 -0.2803,-5.84892 c -0.27456,-5.72949 -0.34251,-5.86498 -3.32716,-6.6349 -1.67579,-0.43228 -4.41797,-0.43077 -6.09375,0.004 l -3.04688,0.78934 -0.24468,40.25308 c -0.13457,22.1392 -0.0349,40.79984 0.22151,41.46809 0.33352,0.86925 2.27059,1.13603 6.80717,0.9375 l 6.341,-0.27787 0.46875,-28.92358 z m 266.50284,66.89409 c -4.74497,-0.99925 -11.5178,-3.90468 -15.1785,-6.51132 -8.38125,-5.96797 -7.70427,-21.29473 1.32723,-30.0484 l 3.29691,-3.19549 -3.44092,-3.52383 c -2.90022,-2.97009 -3.5063,-4.31229 -3.85703,-8.54156 -0.44858,-5.40928 2.1359,-13.1851 5.34879,-16.09273 1.55168,-1.40425 1.49743,-1.7623 -1.02419,-6.76146 -3.40529,-6.75103 -3.69431,-16.24923 -0.73511,-24.1584 2.53247,-6.76863 9.03576,-12.73195 16.41654,-15.05349 6.03547,-1.89839 9.85305,-1.99345 33.68719,-0.83883 l 16.875,0.8175 0,5.15625 0,5.15625 -6.95067,0.46875 c -5.94475,0.40091 -6.73234,0.64879 -5.44201,1.71278 2.61745,2.15831 4.71001,10.19167 4.17931,16.04439 -1.27165,14.02389 -9.55128,22.72414 -24.14377,25.37026 -6.82868,1.23828 -12.7153,0.632 -18.51226,-1.90662 l -3.99439,-1.74925 -1.45709,2.22381 c -2.21096,3.37433 -1.40775,8.80984 1.6362,11.0727 2.14546,1.59493 4.72827,1.96579 18.08959,2.59744 19.44675,0.91934 24.50352,2.31651 30.67312,8.47493 4.89804,4.88918 5.93779,8.11611 5.25766,16.31757 -0.80173,9.66784 -8.49137,18.07521 -19.81917,21.66905 -5.59325,1.7745 -26.05915,2.59974 -32.23243,1.2997 z m 27.03127,-11.73874 c 9.65645,-3.29028 14.09379,-12.39704 9.12098,-18.71894 -3.11101,-3.95503 -6.69862,-4.9368 -20.75811,-5.68061 l -12.94677,-0.68494 -3.30509,3.17636 c -4.37971,4.20913 -5.95762,7.42146 -5.95762,12.12867 0,3.11224 0.5617,4.41388 2.81176,6.51575 1.54647,1.44462 4.39413,3.04684 6.32812,3.56049 5.61593,1.49153 19.96414,1.31918 24.70673,-0.29678 z m -3.98753,-60.8464 c 6.85049,-3.54253 9.75193,-15.95543 5.59995,-23.95767 -3.01175,-5.80463 -7.08927,-7.9902 -14.907,-7.9902 -5.31051,0 -6.64486,0.36469 -9.61036,2.62658 -3.99181,3.04471 -5.77446,6.13246 -6.67663,11.56471 -1.34394,8.09235 3.88799,17.39746 10.74989,19.11895 4.29938,1.0786 11.3806,0.42871 14.84415,-1.36237 z m 162.63442,42.56881 c -7.55872,-1.54681 -12.0056,-5.01457 -15.02524,-11.71698 -1.476,-3.27614 -1.72047,-7.23588 -1.98159,-32.09658 l -0.29788,-28.35937 -5.99891,0 c -6.54832,0 -7.93988,-1.06801 -7.93988,-6.09375 0,-5.03811 1.38618,-6.09375 8.00173,-6.09375 l 6.06077,0 0,-10.2122 c 0,-11.44274 -0.0573,-11.3503 7.03125,-11.3503 7.08851,0 7.03125,-0.0924 7.03125,11.3503 l 0,10.2122 11.1497,0 c 12.35629,0 12.2878,-0.036 12.2878,6.45168 0,1.91719 -0.50625,3.99207 -1.125,4.61082 -0.74359,0.74359 -4.75302,1.125 -11.82609,1.125 l -10.70109,0 0.40585,25.54687 c 0.32851,20.67831 0.69117,26.20248 1.90298,28.98705 1.96964,4.52596 4.45311,5.74752 10.41839,5.1246 2.65717,-0.27747 6.09683,-0.63055 7.64371,-0.78463 l 2.8125,-0.28014 0,5.15625 c 0,4.97088 -0.11797,5.2123 -3.28125,6.71541 -4.16871,1.98086 -11.52746,2.73921 -16.569,1.70752 z m -236.556,-0.78372 -2.34375,-0.69249 0,-41.17265 0,-41.17265 3.10284,-0.88987 c 1.9046,-0.54624 4.43888,-0.55979 6.5625,-0.0351 l 3.45966,0.85477 0.24446,40.72429 c 0.13446,22.39835 -0.0765,41.04472 -0.46875,41.43638 -1.10635,1.10464 -7.94697,1.71846 -10.55696,0.94729 z m 126.09375,-0.005 -2.8125,-0.62117 -0.24138,-59.937 c -0.14788,-36.72082 0.10174,-60.2801 0.64444,-60.8228 1.37543,-1.37544 10.89323,-1.20838 12.61606,0.22143 1.31691,1.09293 1.51213,4.26128 1.51213,24.54009 l 0,23.28513 6.11818,-4.63083 c 7.69779,-5.82644 14.39456,-7.94085 22.37632,-7.06499 7.53433,0.82676 12.82842,3.4698 17.43678,8.70517 6.46979,7.35007 6.8724,9.79332 7.2833,44.19915 0.23537,19.70817 0.0298,30.68474 -0.5861,31.30068 -1.39662,1.39661 -10.912,1.3077 -12.62988,-0.11801 -1.25697,-1.0432 -1.50309,-5.33241 -1.7465,-30.43704 l -0.28335,-29.22308 -2.54616,-4.33113 c -3.00061,-5.1042 -7.12261,-7.38762 -13.336,-7.38762 -5.68505,0 -10.84981,2.70343 -17.09406,8.94769 l -4.99253,4.99253 -0.0143,27.95176 c -0.008,15.37347 -0.3243,28.42745 -0.70313,29.00883 -0.89533,1.37408 -7.40585,2.21494 -11.00127,1.42086 z M 559.377,291.73641 c -1.42275,-1.57214 -1.56413,-6.65464 -1.56413,-56.23093 0,-52.9256 0.0525,-54.53065 1.81337,-55.47306 2.2854,-1.22311 7.63923,-1.25101 10.78185,-0.0562 l 2.40478,0.9143 0,49.6931 0,49.6931 21.29359,0.25199 21.29358,0.25197 0.87329,3.04687 c 0.53942,1.88206 0.53935,4.21169 -2e-4,6.09375 l -0.87348,3.04688 -27.22925,0.24829 c -25.44791,0.23204 -27.33158,0.13521 -28.7934,-1.48007 z m 72.49837,-99.54916 c -1.375,-1.375 -1.875,-3.125 -1.875,-6.5625 0,-6.49669 2.04863,-8.4375 8.90625,-8.4375 3.90625,0 5.6108,0.45455 7.03125,1.875 2.58539,2.58539 2.54946,9.20221 -0.0681,12.52982 -1.6727,2.12648 -2.65101,2.47018 -7.03125,2.47018 -3.83821,0 -5.54883,-0.46062 -6.96321,-1.875 z"
     id="path3358"
     inkscape:connector-curvature="0" />
</svg>
